<?xml version="1.0" encoding="UTF-8"?>
<svg xmlns="http://www.w3.org/2000/svg" xmlns:xlink="http://www.w3.org/1999/xlink" width="100px" height="100px" viewBox="0 0 100 100" version="1.1">
<g id="surface1">
<path style=" stroke:none;fill-rule:nonzero;fill:rgb(0%,0%,0%);fill-opacity:1;" d="M 39.582031 62.5625 C 56.527344 62.5625 70.832031 65.351562 70.832031 76.121094 C 70.832031 86.886719 56.4375 89.582031 39.582031 89.582031 C 22.636719 89.582031 8.332031 86.789062 8.332031 76.027344 C 8.332031 65.257812 22.726562 62.5625 39.582031 62.5625 Z M 79.164062 31.25 C 81.230469 31.25 82.90625 32.957031 82.90625 35.046875 L 82.90625 39.949219 L 87.921875 39.949219 C 89.984375 39.949219 91.667969 41.65625 91.667969 43.746094 C 91.667969 45.839844 89.984375 47.546875 87.921875 47.546875 L 82.90625 47.546875 L 82.90625 52.453125 C 82.90625 54.542969 81.230469 56.25 79.164062 56.25 C 77.097656 56.25 75.417969 54.542969 75.417969 52.453125 L 75.417969 47.546875 L 70.414062 47.546875 C 68.34375 47.546875 66.667969 45.839844 66.667969 43.746094 C 66.667969 41.65625 68.34375 39.949219 70.414062 39.949219 L 75.417969 39.949219 L 75.417969 35.046875 C 75.417969 32.957031 77.097656 31.25 79.164062 31.25 Z M 39.582031 10.417969 C 51.0625 10.417969 60.261719 19.734375 60.261719 31.363281 C 60.261719 42.988281 51.0625 52.308594 39.582031 52.308594 C 28.105469 52.308594 18.90625 42.988281 18.90625 31.363281 C 18.90625 19.734375 28.105469 10.417969 39.582031 10.417969 Z M 39.582031 10.417969 "/>
</g>
</svg>
