<?xml version="1.0" encoding="UTF-8"?>
<svg xmlns="http://www.w3.org/2000/svg" xmlns:xlink="http://www.w3.org/1999/xlink" width="25px" height="25px" viewBox="0 0 25 25" version="1.1">
<g id="surface1">
<path style=" stroke:none;fill-rule:evenodd;fill:rgb(0%,0%,0%);fill-opacity:1;" d="M 15.625 19.53125 C 15.625 19.964844 15.277344 20.3125 14.84375 20.3125 L 2.34375 20.3125 C 1.910156 20.3125 1.5625 19.964844 1.5625 19.53125 L 1.5625 5.46875 C 1.5625 5.035156 1.910156 4.6875 2.34375 4.6875 L 14.84375 4.6875 C 15.277344 4.6875 15.625 5.035156 15.625 5.46875 L 15.625 8.59375 C 15.625 9.027344 15.972656 9.375 16.40625 9.375 C 16.839844 9.375 17.1875 9.027344 17.1875 8.59375 L 17.1875 5.46875 C 17.1875 4.171875 16.140625 3.125 14.84375 3.125 L 2.34375 3.125 C 1.046875 3.125 0 4.171875 0 5.46875 L 0 19.53125 C 0 20.828125 1.046875 21.875 2.34375 21.875 L 14.84375 21.875 C 16.140625 21.875 17.1875 20.828125 17.1875 19.53125 L 17.1875 16.40625 C 17.1875 15.972656 16.839844 15.625 16.40625 15.625 C 15.972656 15.625 15.625 15.972656 15.625 16.40625 Z M 15.625 19.53125 "/>
<path style=" stroke:none;fill-rule:evenodd;fill:rgb(0%,0%,0%);fill-opacity:1;" d="M 24.773438 13.054688 C 24.917969 12.90625 25 12.707031 25 12.5 C 25 12.292969 24.917969 12.09375 24.773438 11.945312 L 20.085938 7.257812 C 19.777344 6.953125 19.285156 6.953125 18.976562 7.257812 C 18.671875 7.566406 18.671875 8.058594 18.976562 8.367188 L 22.332031 11.71875 L 8.59375 11.71875 C 8.160156 11.71875 7.8125 12.066406 7.8125 12.5 C 7.8125 12.933594 8.160156 13.28125 8.59375 13.28125 L 22.332031 13.28125 L 18.976562 16.632812 C 18.671875 16.941406 18.671875 17.433594 18.976562 17.742188 C 19.285156 18.046875 19.777344 18.046875 20.085938 17.742188 Z M 24.773438 13.054688 "/>
</g>
</svg>
