<?xml version="1.0" encoding="UTF-8"?>
<svg xmlns="http://www.w3.org/2000/svg" xmlns:xlink="http://www.w3.org/1999/xlink" width="100px" height="100px" viewBox="0 0 100 100" version="1.1">
<g id="surface1">
<path style=" stroke:none;fill-rule:nonzero;fill:rgb(0%,0%,0%);fill-opacity:1;" d="M 93.195312 24.875 C 88.730469 17.222656 82.671875 11.164062 75.019531 6.699219 C 67.367188 2.234375 59.011719 0 49.949219 0 C 40.886719 0 32.53125 2.234375 24.878906 6.699219 C 17.222656 11.164062 11.164062 17.222656 6.699219 24.875 C 2.234375 32.527344 0 40.886719 0 49.945312 C 0 59.007812 2.234375 67.363281 6.699219 75.019531 C 11.164062 82.667969 17.222656 88.726562 24.875 93.195312 C 32.527344 97.660156 40.886719 99.894531 49.949219 99.894531 C 59.007812 99.894531 67.367188 97.660156 75.019531 93.195312 C 82.671875 88.730469 88.730469 82.671875 93.195312 75.019531 C 97.660156 67.363281 99.894531 59.007812 99.894531 49.945312 C 99.894531 40.886719 97.660156 32.527344 93.195312 24.875 Z M 56.195312 76.226562 C 55.757812 75.707031 55.609375 75.273438 55.738281 74.925781 C 55.695312 75.140625 55.542969 75.335938 55.285156 75.507812 C 55.066406 75.25 54.675781 74.925781 54.113281 74.535156 C 53.550781 74.144531 53.160156 73.820312 52.941406 73.558594 C 52.855469 73.425781 52.738281 73.242188 52.585938 73.003906 C 52.433594 72.765625 52.238281 72.453125 52 72.0625 C 51.761719 71.671875 51.589844 71.335938 51.480469 71.054688 C 51.371094 70.769531 51.363281 70.609375 51.449219 70.566406 C 50.625 70.914062 49.433594 70.675781 47.871094 69.851562 C 47.566406 69.675781 47.113281 69.222656 46.503906 68.484375 C 45.898438 67.746094 45.269531 67.421875 44.621094 67.507812 C 44.402344 67.550781 44.109375 67.628906 43.742188 67.738281 C 43.375 67.847656 43.058594 67.898438 42.796875 67.898438 C 42.539062 67.898438 42.191406 67.8125 41.757812 67.636719 C 41.410156 67.507812 40.945312 67.257812 40.359375 66.890625 C 39.773438 66.523438 39.375 66.292969 39.15625 66.207031 C 38.59375 65.90625 38.3125 65.753906 38.3125 65.753906 L 37.269531 65.234375 C 37.011719 65.105469 36.738281 64.898438 36.457031 64.617188 C 36.175781 64.335938 35.992188 64.042969 35.90625 63.738281 C 35.820312 63.480469 35.710938 62.957031 35.582031 62.175781 C 35.449219 61.394531 35.277344 60.832031 35.058594 60.488281 C 34.800781 60.054688 34.433594 59.621094 33.953125 59.1875 C 33.476562 58.753906 33.042969 58.535156 32.652344 58.535156 C 33 58.535156 33 58.246094 32.652344 57.65625 C 32.308594 57.070312 32.003906 56.648438 31.742188 56.390625 C 31.65625 56.300781 31.394531 56.019531 30.960938 55.542969 C 30.527344 55.066406 30.160156 54.65625 29.855469 54.308594 C 29.554688 53.960938 29.292969 53.558594 29.078125 53.101562 C 28.859375 52.648438 28.816406 52.269531 28.945312 51.964844 C 28.988281 51.921875 28.945312 51.855469 28.816406 51.769531 C 28.6875 51.683594 28.523438 51.597656 28.328125 51.511719 C 28.132812 51.425781 27.949219 51.347656 27.777344 51.28125 C 27.601562 51.21875 27.472656 51.1875 27.386719 51.1875 C 27.472656 51.359375 27.570312 51.671875 27.679688 52.128906 C 27.789062 52.585938 27.90625 52.921875 28.035156 53.136719 C 28.125 53.3125 28.492188 53.941406 29.140625 55.023438 C 30.269531 56.84375 30.789062 58.1875 30.703125 59.054688 C 30.441406 59.140625 30.269531 59.097656 30.183594 58.925781 C 30.09375 58.753906 30.03125 58.515625 29.988281 58.210938 C 29.945312 57.910156 29.902344 57.691406 29.855469 57.5625 C 29.726562 57.300781 29.390625 57.019531 28.847656 56.714844 C 28.308594 56.410156 27.96875 56.109375 27.839844 55.804688 C 27.882812 55.804688 27.9375 55.785156 28.003906 55.738281 C 28.070312 55.695312 28.125 55.675781 28.167969 55.675781 C 28.210938 55.285156 27.984375 54.785156 27.484375 54.175781 C 26.984375 53.570312 26.78125 53.136719 26.867188 52.878906 C 26.519531 52.617188 26.214844 52.105469 25.953125 51.351562 C 25.695312 50.589844 25.476562 50.101562 25.304688 49.886719 C 25.132812 49.625 24.914062 49.398438 24.65625 49.203125 C 24.394531 49.007812 24.070312 48.792969 23.679688 48.554688 C 23.289062 48.3125 23.027344 48.152344 22.898438 48.066406 C 22.8125 48.023438 22.636719 47.828125 22.378906 47.480469 C 20.949219 45.746094 20.515625 44.8125 21.078125 44.683594 C 20.515625 44.8125 20.046875 44.390625 19.679688 43.414062 C 19.308594 42.441406 19.191406 41.691406 19.320312 41.171875 L 19.191406 41.105469 C 19.234375 40.933594 19.257812 40.425781 19.257812 39.578125 C 19.257812 38.730469 19.3125 37.960938 19.417969 37.269531 C 19.527344 36.574219 19.734375 36.226562 20.039062 36.226562 C 19.734375 36.269531 19.507812 36 19.355469 35.414062 C 19.203125 34.828125 19.191406 34.429688 19.320312 34.210938 C 19.367188 34.082031 19.5625 34.167969 19.90625 34.472656 C 20.253906 34.773438 20.449219 34.972656 20.492188 35.058594 C 21.054688 34.753906 21.273438 34.363281 21.144531 33.886719 C 21.054688 33.710938 20.601562 33.257812 19.777344 32.519531 C 17.914062 31.304688 16.957031 30.722656 16.914062 30.765625 C 17.175781 30.289062 17.109375 29.875 16.71875 29.527344 C 16.285156 29.789062 16.039062 29.851562 15.972656 29.722656 C 15.90625 29.59375 15.851562 29.355469 15.808594 29.007812 C 15.765625 28.664062 15.65625 28.46875 15.484375 28.421875 C 15.269531 28.378906 15.007812 28.207031 14.703125 27.902344 C 18.5625 21.746094 23.65625 16.933594 29.988281 13.464844 C 30.246094 13.421875 30.722656 13.402344 31.417969 13.402344 C 31.765625 13.445312 32.089844 13.550781 32.394531 13.726562 C 32.695312 13.898438 33.011719 14.136719 33.335938 14.441406 C 33.660156 14.742188 33.910156 14.960938 34.082031 15.089844 C 34.171875 14.832031 34.0625 14.441406 33.757812 13.917969 C 33.84375 13.660156 34.320312 13.398438 35.1875 13.140625 C 36.1875 13.007812 36.835938 13.03125 37.140625 13.203125 C 36.878906 12.8125 36.445312 12.273438 35.839844 11.578125 L 35.515625 11.902344 C 35.167969 11.601562 34.257812 11.75 32.785156 12.359375 C 32.699219 12.402344 32.480469 12.519531 32.132812 12.714844 C 31.785156 12.910156 31.503906 13.050781 31.289062 13.136719 C 31.027344 13.226562 30.765625 13.246094 30.507812 13.203125 C 32.589844 12.078125 34.625 11.1875 36.621094 10.535156 C 36.75 10.621094 36.96875 10.808594 37.269531 11.089844 C 37.574219 11.371094 37.8125 11.578125 37.984375 11.707031 C 37.855469 11.621094 37.769531 11.664062 37.726562 11.835938 C 37.550781 12.355469 37.550781 12.789062 37.726562 13.136719 C 37.941406 13.441406 38.234375 13.613281 38.605469 13.65625 C 38.972656 13.699219 39.417969 13.679688 39.9375 13.59375 C 40.457031 13.507812 40.804688 13.460938 40.976562 13.460938 L 41.628906 13.527344 C 43.015625 13.65625 43.558594 13.527344 43.253906 13.136719 C 43.382812 13.3125 43.535156 13.667969 43.710938 14.210938 C 43.882812 14.753906 44.078125 15.132812 44.292969 15.347656 C 44.511719 15.175781 44.554688 14.871094 44.425781 14.4375 C 44.292969 14.003906 44.292969 13.699219 44.425781 13.527344 C 44.46875 13.441406 44.597656 13.355469 44.816406 13.265625 C 45.03125 13.179688 45.28125 13.082031 45.5625 12.976562 C 45.84375 12.867188 46.027344 12.789062 46.117188 12.746094 C 46.375 12.574219 46.203125 12.269531 45.59375 11.835938 C 45.507812 11.792969 45.324219 11.726562 45.042969 11.640625 C 44.761719 11.554688 44.511719 11.46875 44.296875 11.382812 C 44.078125 11.296875 43.851562 11.175781 43.613281 11.023438 C 43.375 10.871094 43.265625 10.699219 43.285156 10.503906 C 43.308594 10.308594 43.429688 10.058594 43.644531 9.753906 C 43.90625 9.539062 44.328125 9.453125 44.914062 9.496094 C 45.496094 9.539062 45.941406 9.648438 46.246094 9.820312 C 47.417969 10.472656 47.589844 11.058594 46.765625 11.578125 C 47.199219 11.621094 47.722656 11.792969 48.328125 12.097656 C 48.933594 12.398438 49.171875 12.726562 49.042969 13.074219 C 49.390625 12.421875 49.738281 12.097656 50.085938 12.097656 C 50.300781 12.140625 50.507812 12.433594 50.703125 12.976562 C 50.898438 13.515625 51.015625 13.808594 51.058594 13.851562 C 51.40625 14.328125 51.75 14.4375 52.101562 14.175781 C 52.445312 13.917969 52.804688 13.539062 53.171875 13.039062 C 53.539062 12.542969 53.746094 12.3125 53.789062 12.355469 C 53.355469 12.183594 53.3125 12.011719 53.660156 11.835938 C 54.308594 11.445312 54.894531 11.339844 55.417969 11.511719 C 55.546875 11.597656 55.71875 11.792969 55.933594 12.097656 C 56.324219 12.878906 56.257812 13.246094 55.742188 13.203125 C 56.128906 13.550781 56.292969 13.984375 56.230469 14.503906 C 56.164062 15.023438 55.824219 15.261719 55.21875 15.21875 C 55.003906 15.21875 54.6875 15.109375 54.273438 14.894531 C 53.863281 14.675781 53.550781 14.558594 53.332031 14.535156 C 53.113281 14.515625 52.8125 14.632812 52.421875 14.894531 C 52.25 15.109375 52.019531 15.480469 51.738281 16 C 51.457031 16.519531 51.207031 16.886719 50.988281 17.105469 C 50.339844 17.753906 49.253906 17.996094 47.738281 17.820312 C 47.867188 17.820312 47.855469 17.949219 47.703125 18.210938 C 47.550781 18.46875 47.347656 18.765625 47.085938 19.089844 C 46.828125 19.414062 46.675781 19.597656 46.632812 19.640625 C 46.242188 20.074219 45.980469 20.574219 45.851562 21.136719 C 45.851562 21.222656 45.828125 21.515625 45.785156 22.015625 C 45.742188 22.511719 45.65625 22.894531 45.527344 23.152344 C 46.046875 23.023438 46.457031 23.285156 46.761719 23.933594 C 47.023438 24.542969 47.023438 24.867188 46.761719 24.910156 C 48.191406 24.695312 49.449219 24.78125 50.535156 25.171875 C 52.09375 25.734375 52.984375 26.296875 53.203125 26.859375 C 53.460938 26.46875 54.089844 26.449219 55.085938 26.796875 C 55.476562 27.011719 55.824219 27.664062 56.128906 28.746094 C 56.300781 29.394531 56.59375 29.960938 57.007812 30.4375 C 57.417969 30.914062 57.863281 31.042969 58.339844 30.828125 L 58.535156 30.699219 C 58.707031 30.609375 58.847656 30.535156 58.957031 30.46875 C 59.066406 30.40625 59.183594 30.316406 59.3125 30.210938 C 59.445312 30.101562 59.519531 30.003906 59.539062 29.917969 C 59.5625 29.832031 59.53125 29.742188 59.445312 29.65625 C 59.140625 29.398438 58.914062 29.039062 58.761719 28.585938 C 58.609375 28.128906 58.644531 27.726562 58.859375 27.378906 C 58.988281 27.207031 59.335938 26.945312 59.898438 26.601562 C 60.464844 26.253906 60.8125 25.90625 60.941406 25.558594 C 61.117188 24.996094 60.898438 24.53125 60.289062 24.160156 C 59.683594 23.792969 59.378906 23.457031 59.378906 23.152344 C 59.378906 22.933594 59.519531 22.675781 59.800781 22.371094 C 60.085938 22.070312 60.203125 21.785156 60.160156 21.527344 C 60.160156 21.394531 60.082031 21.125 59.933594 20.714844 C 59.78125 20.300781 59.695312 19.996094 59.671875 19.800781 C 59.648438 19.605469 59.75 19.378906 59.964844 19.121094 C 60.265625 18.945312 60.984375 18.957031 62.109375 19.152344 C 63.238281 19.347656 63.976562 19.554688 64.324219 19.769531 C 64.453125 19.855469 64.734375 19.984375 65.167969 20.160156 C 65.601562 20.332031 65.980469 20.515625 66.308594 20.710938 C 66.628906 20.90625 66.816406 21.089844 66.859375 21.265625 L 66.535156 21.265625 C 66.835938 21.523438 67.023438 21.828125 67.085938 22.175781 C 67.152344 22.523438 66.988281 22.78125 66.597656 22.957031 C 66.859375 22.914062 67.207031 22.976562 67.640625 23.152344 C 68.332031 23.410156 68.355469 23.648438 67.707031 23.867188 C 67.835938 23.824219 68.019531 23.78125 68.257812 23.738281 C 68.496094 23.691406 68.679688 23.628906 68.808594 23.542969 C 68.894531 23.496094 69.003906 23.421875 69.132812 23.3125 C 69.265625 23.207031 69.359375 23.140625 69.425781 23.121094 C 69.492188 23.097656 69.589844 23.074219 69.71875 23.054688 C 69.847656 23.03125 69.980469 23.066406 70.109375 23.152344 C 70.152344 23.152344 70.25 23.042969 70.402344 22.828125 C 70.550781 22.609375 70.714844 22.394531 70.886719 22.175781 C 71.0625 21.960938 71.210938 21.851562 71.34375 21.851562 C 71.472656 21.851562 71.59375 21.90625 71.699219 22.011719 C 71.808594 22.121094 71.894531 22.242188 71.960938 22.371094 C 72.027344 22.5 72.089844 22.644531 72.15625 22.792969 C 72.21875 22.945312 72.273438 23.066406 72.316406 23.152344 C 72.402344 23.367188 72.609375 23.597656 72.933594 23.832031 C 73.257812 24.070312 73.464844 24.300781 73.550781 24.515625 C 73.59375 24.648438 73.679688 24.972656 73.8125 25.492188 C 73.941406 26.011719 74.117188 26.371094 74.332031 26.566406 C 74.546875 26.761719 74.875 26.921875 75.304688 27.054688 C 75.394531 27.097656 75.589844 27.074219 75.890625 26.988281 C 76.195312 26.902344 76.445312 26.878906 76.640625 26.921875 C 76.835938 26.964844 76.933594 27.140625 76.933594 27.445312 C 77.191406 27.183594 77.320312 27.007812 77.320312 26.921875 C 77.367188 27.488281 77.503906 27.941406 77.746094 28.289062 C 77.984375 28.636719 78.363281 28.789062 78.882812 28.742188 L 78.753906 30.175781 C 78.625 30.390625 78.296875 30.554688 77.777344 30.660156 C 77.257812 30.769531 76.933594 30.867188 76.800781 30.957031 C 76.671875 31 76.355469 31.257812 75.855469 31.734375 C 75.359375 32.214844 75.152344 32.496094 75.238281 32.582031 C 74.503906 31.757812 73.398438 31.519531 71.921875 31.867188 C 70.277344 32.125 69.148438 32.386719 68.542969 32.648438 C 67.847656 32.992188 67.371094 33.320312 67.109375 33.621094 C 67.066406 33.664062 66.992188 33.816406 66.882812 34.078125 C 66.777344 34.335938 66.667969 34.574219 66.558594 34.792969 C 66.449219 35.007812 66.355469 35.117188 66.265625 35.117188 C 66.527344 35.074219 66.820312 34.867188 67.144531 34.5 C 67.472656 34.132812 67.675781 33.925781 67.761719 33.882812 C 68.890625 33.144531 69.820312 32.886719 70.5625 33.105469 C 71.515625 33.367188 71.667969 33.714844 71.015625 34.148438 C 70.933594 34.234375 70.703125 34.265625 70.335938 34.246094 C 69.96875 34.222656 69.71875 34.234375 69.585938 34.277344 C 69.976562 34.363281 70.300781 34.484375 70.566406 34.636719 C 70.824219 34.785156 70.890625 34.992188 70.757812 35.253906 C 71.453125 35.644531 71.582031 36.078125 71.148438 36.554688 C 70.585938 37.117188 69.914062 37.355469 69.132812 37.269531 C 69.265625 37.269531 69.265625 37.355469 69.132812 37.53125 L 68.027344 38.246094 C 67.941406 38.289062 67.660156 38.394531 67.179688 38.570312 C 66.703125 38.742188 66.378906 38.9375 66.207031 39.15625 C 66.074219 39.328125 66.011719 39.589844 66.011719 39.9375 C 66.011719 40.285156 65.988281 40.542969 65.945312 40.71875 C 65.902344 40.890625 65.726562 40.933594 65.425781 40.847656 C 65.296875 41.105469 64.894531 41.3125 64.222656 41.464844 C 63.550781 41.617188 63.105469 41.84375 62.890625 42.148438 C 63.148438 42.492188 63.128906 42.839844 62.824219 43.1875 C 62.304688 43.621094 61.847656 43.578125 61.457031 43.058594 C 61.242188 43.144531 61.078125 43.359375 60.96875 43.707031 C 60.863281 44.054688 60.699219 44.292969 60.484375 44.421875 C 60.789062 44.902344 60.742188 45.25 60.355469 45.464844 C 60.398438 45.464844 60.496094 45.507812 60.644531 45.59375 C 60.796875 45.679688 60.960938 45.789062 61.132812 45.917969 C 61.308594 46.050781 61.414062 46.113281 61.457031 46.113281 C 61.285156 46.503906 61.046875 46.699219 60.742188 46.699219 C 61.003906 47.394531 60.679688 48.152344 59.769531 48.976562 C 59.59375 49.148438 59.324219 49.320312 58.953125 49.496094 C 58.585938 49.667969 58.25 49.808594 57.945312 49.917969 C 57.640625 50.027344 57.46875 50.101562 57.425781 50.144531 C 56.992188 50.535156 56.664062 50.9375 56.449219 51.347656 C 56.234375 51.761719 56.199219 52.164062 56.351562 52.554688 C 56.503906 52.945312 56.90625 53.203125 57.554688 53.332031 L 57.617188 53.855469 L 57.617188 55.023438 L 57.683594 55.542969 C 57.730469 55.847656 57.761719 56.117188 57.78125 56.359375 C 57.804688 56.597656 57.804688 56.898438 57.78125 57.269531 C 57.761719 57.636719 57.664062 57.84375 57.492188 57.886719 C 57.316406 57.929688 57.078125 57.886719 56.777344 57.753906 C 56.425781 57.582031 56.015625 56.628906 55.539062 54.894531 C 55.453125 54.460938 55.191406 53.941406 54.757812 53.332031 C 54.539062 53.550781 54.355469 53.691406 54.207031 53.753906 C 54.054688 53.820312 53.945312 53.832031 53.882812 53.789062 C 53.816406 53.746094 53.695312 53.648438 53.523438 53.496094 C 53.351562 53.34375 53.199219 53.226562 53.070312 53.140625 C 52.851562 53.011719 52.472656 52.902344 51.929688 52.816406 C 51.390625 52.726562 51.050781 52.617188 50.921875 52.488281 C 49.882812 53.273438 49.25 53.074219 49.035156 51.90625 C 48.949219 52.121094 48.960938 52.414062 49.066406 52.785156 C 49.175781 53.152344 49.230469 53.359375 49.230469 53.402344 C 48.929688 53.964844 48.449219 54.007812 47.800781 53.53125 C 47.539062 53.273438 46.945312 53.238281 46.011719 53.433594 C 45.078125 53.628906 44.460938 53.660156 44.15625 53.53125 C 44.203125 53.53125 44.289062 53.59375 44.417969 53.726562 C 44.546875 53.8125 44.636719 53.875 44.679688 53.921875 C 44.636719 54.09375 44.570312 54.222656 44.484375 54.308594 C 44.394531 54.394531 44.308594 54.429688 44.222656 54.410156 C 44.136719 54.386719 44.039062 54.386719 43.929688 54.410156 C 43.820312 54.429688 43.722656 54.460938 43.636719 54.503906 C 43.464844 54.632812 43.246094 54.863281 42.988281 55.1875 C 42.726562 55.511719 42.53125 55.71875 42.402344 55.804688 C 42.660156 56.496094 42.78125 57.027344 42.757812 57.398438 C 42.738281 57.765625 42.671875 58.308594 42.5625 59.023438 C 42.457031 59.738281 42.402344 60.3125 42.402344 60.746094 C 42.402344 61.441406 42.605469 62.246094 43.019531 63.152344 C 43.429688 64.0625 43.917969 64.691406 44.480469 65.039062 C 44.785156 65.210938 45.308594 65.320312 46.042969 65.363281 C 46.78125 65.40625 47.300781 65.363281 47.605469 65.234375 C 47.863281 65.105469 48.058594 64.953125 48.1875 64.78125 C 48.320312 64.605469 48.429688 64.355469 48.515625 64.03125 C 48.601562 63.707031 48.667969 63.480469 48.710938 63.351562 C 49.011719 62.523438 49.578125 62.09375 50.398438 62.046875 C 50.921875 62.003906 51.300781 62.0625 51.539062 62.210938 C 51.777344 62.363281 51.875 62.566406 51.832031 62.828125 C 51.785156 63.089844 51.699219 63.359375 51.570312 63.640625 C 51.441406 63.921875 51.277344 64.238281 51.082031 64.585938 C 50.890625 64.933594 50.769531 65.191406 50.726562 65.367188 C 50.640625 65.714844 50.5625 66.199219 50.5 66.832031 C 50.433594 67.460938 50.378906 67.839844 50.335938 67.96875 C 50.421875 68.011719 50.75 68.035156 51.3125 68.035156 C 51.3125 67.949219 51.34375 67.804688 51.410156 67.609375 C 51.472656 67.417969 51.507812 67.296875 51.507812 67.253906 C 51.722656 67.601562 52.070312 67.796875 52.546875 67.839844 C 53.023438 67.882812 53.371094 67.710938 53.589844 67.320312 C 53.675781 67.449219 53.9375 67.773438 54.371094 68.296875 C 54.804688 68.816406 55.042969 69.25 55.085938 69.59375 C 55.128906 69.769531 55.214844 70.050781 55.34375 70.441406 C 55.476562 70.832031 55.519531 71.101562 55.476562 71.257812 C 55.433594 71.40625 55.214844 71.484375 54.824219 71.484375 C 54.652344 71.484375 54.542969 71.546875 54.5 71.675781 C 54.457031 71.808594 54.457031 71.96875 54.5 72.164062 C 54.542969 72.359375 54.597656 72.542969 54.664062 72.71875 C 54.726562 72.890625 54.816406 73.074219 54.921875 73.269531 C 55.03125 73.464844 55.085938 73.582031 55.085938 73.628906 C 55.867188 75.058594 56.929688 75.449219 58.273438 74.796875 C 58.273438 76.054688 57.96875 76.75 57.359375 76.878906 C 57.019531 76.964844 56.628906 76.746094 56.195312 76.226562 Z M 57.167969 90.917969 C 57.082031 90.484375 57.039062 90.140625 57.042969 89.878906 C 56.996094 89.53125 57.148438 89.066406 57.496094 88.480469 C 57.84375 87.898438 58.015625 87.453125 58.015625 87.148438 C 57.320312 86.976562 57.0625 86.410156 57.234375 85.457031 C 57.320312 84.808594 57.949219 83.941406 59.121094 82.855469 C 59.945312 82.117188 60.203125 81.078125 59.902344 79.734375 C 59.769531 79.171875 59.660156 78.347656 59.574219 77.261719 C 59.488281 76.179688 59.402344 75.417969 59.316406 74.988281 C 59.316406 75.117188 59.519531 75.234375 59.933594 75.34375 C 60.34375 75.449219 60.59375 75.59375 60.679688 75.765625 C 60.769531 75.636719 60.875 75.394531 61.007812 75.050781 C 61.136719 74.703125 61.265625 74.441406 61.394531 74.269531 C 61.480469 74.140625 61.664062 73.976562 61.949219 73.78125 C 62.230469 73.585938 62.414062 73.46875 62.5 73.425781 C 62.585938 73.382812 62.78125 73.242188 63.085938 73 C 63.386719 72.761719 63.636719 72.578125 63.832031 72.449219 C 64.03125 72.320312 64.289062 72.222656 64.613281 72.15625 C 64.941406 72.09375 65.167969 72.191406 65.296875 72.449219 C 65.511719 72.710938 65.46875 73.109375 65.167969 73.652344 C 64.863281 74.195312 64.863281 74.574219 65.167969 74.792969 C 65.210938 74.660156 65.253906 74.378906 65.296875 73.945312 C 65.339844 73.511719 65.46875 73.1875 65.6875 72.96875 C 65.945312 72.710938 66.195312 72.558594 66.433594 72.515625 C 66.671875 72.46875 66.890625 72.503906 67.082031 72.613281 C 67.28125 72.722656 67.507812 72.871094 67.765625 73.066406 C 68.027344 73.261719 68.265625 73.382812 68.480469 73.425781 C 69.132812 73.640625 69.914062 74.117188 70.824219 74.855469 C 70.78125 74.8125 70.78125 74.757812 70.824219 74.691406 C 70.867188 74.628906 70.953125 74.5625 71.085938 74.496094 C 71.214844 74.433594 71.332031 74.367188 71.441406 74.300781 C 71.546875 74.238281 71.667969 74.183594 71.796875 74.140625 L 71.992188 74.074219 C 72.296875 74.074219 72.511719 74.054688 72.640625 74.007812 C 72.773438 73.964844 72.957031 74.007812 73.195312 74.140625 C 73.433594 74.269531 73.597656 74.367188 73.679688 74.433594 C 73.769531 74.496094 73.921875 74.617188 74.136719 74.789062 C 74.355469 74.960938 74.507812 75.09375 74.589844 75.179688 C 74.722656 75.265625 74.960938 75.417969 75.304688 75.636719 C 75.652344 75.851562 75.925781 76.023438 76.121094 76.152344 C 76.316406 76.28125 76.488281 76.480469 76.640625 76.738281 C 76.789062 77 76.847656 77.28125 76.800781 77.585938 C 77.0625 77.628906 77.582031 77.800781 78.363281 78.105469 C 78.496094 78.191406 78.765625 78.265625 79.175781 78.332031 C 79.589844 78.394531 79.859375 78.496094 79.988281 78.625 C 73.707031 85.261719 66.097656 89.359375 57.167969 90.917969 Z M 57.167969 90.917969 "/>
</g>
</svg>
