<?xml version="1.0" encoding="UTF-8"?>
<svg xmlns="http://www.w3.org/2000/svg" xmlns:xlink="http://www.w3.org/1999/xlink" width="100px" height="100px" viewBox="0 0 100 100" version="1.1">
<g id="surface1">
<path style=" stroke:none;fill-rule:nonzero;fill:rgb(0%,0%,0%);fill-opacity:1;" d="M 8.332031 87.5 L 33.332031 87.5 C 35.632812 87.5 37.5 85.632812 37.5 83.332031 C 37.5 81.03125 35.632812 79.167969 33.332031 79.167969 L 12.796875 79.167969 C 14.886719 64.824219 27.175781 54.183594 41.667969 54.167969 C 51.789062 54.253906 60.535156 47.113281 62.476562 37.179688 C 64.414062 27.242188 58.996094 17.335938 49.585938 13.609375 C 40.171875 9.882812 29.441406 13.394531 24.054688 21.96875 C 18.667969 30.539062 20.15625 41.730469 27.597656 48.597656 C 13.449219 54.335938 4.1875 68.066406 4.167969 83.332031 C 4.167969 85.632812 6.03125 87.5 8.332031 87.5 Z M 41.667969 20.832031 C 48.570312 20.832031 54.167969 26.429688 54.167969 33.332031 C 54.167969 40.238281 48.570312 45.832031 41.667969 45.832031 C 34.761719 45.832031 29.167969 40.238281 29.167969 33.332031 C 29.167969 26.429688 34.761719 20.832031 41.667969 20.832031 Z M 84.195312 38.722656 C 82.570312 37.09375 79.929688 37.09375 78.304688 38.722656 L 52.261719 64.761719 C 51.808594 65.222656 51.464844 65.777344 51.257812 66.390625 L 46.050781 82.015625 C 45.628906 83.285156 45.839844 84.683594 46.621094 85.769531 C 47.40625 86.855469 48.660156 87.5 50 87.5 C 50.449219 87.5 50.890625 87.425781 51.316406 87.289062 L 66.941406 82.078125 C 67.554688 81.875 68.113281 81.527344 68.570312 81.070312 L 94.613281 55.027344 C 96.238281 53.402344 96.238281 50.765625 94.613281 49.136719 Z M 63.363281 74.484375 L 56.574219 76.746094 L 58.835938 69.957031 L 81.25 47.558594 L 85.773438 52.082031 Z M 63.363281 74.484375 "/>
</g>
</svg>
