<?xml version="1.0" encoding="UTF-8"?>
<svg xmlns="http://www.w3.org/2000/svg" xmlns:xlink="http://www.w3.org/1999/xlink" width="30px" height="30px" viewBox="0 0 30 30" version="1.1">
<g id="surface1">
<path style=" stroke:none;fill-rule:nonzero;fill:rgb(0%,0%,0%);fill-opacity:1;" d="M 20.625 11.25 C 20.625 14.355469 18.105469 16.875 15 16.875 C 11.894531 16.875 9.375 14.355469 9.375 11.25 C 9.375 8.144531 11.894531 5.625 15 5.625 C 18.105469 5.625 20.625 8.144531 20.625 11.25 Z M 20.625 11.25 "/>
<path style=" stroke:none;fill-rule:evenodd;fill:rgb(0%,0%,0%);fill-opacity:1;" d="M 0 15 C 0 6.714844 6.714844 0 15 0 C 23.285156 0 30 6.714844 30 15 C 30 23.285156 23.285156 30 15 30 C 6.714844 30 0 23.285156 0 15 Z M 15 1.875 C 9.957031 1.875 5.359375 4.765625 3.171875 9.3125 C 0.988281 13.855469 1.597656 19.253906 4.75 23.195312 C 6.078125 21.050781 9.007812 18.75 15 18.75 C 20.992188 18.75 23.921875 21.046875 25.25 23.195312 C 28.402344 19.253906 29.011719 13.855469 26.828125 9.3125 C 24.640625 4.765625 20.042969 1.875 15 1.875 Z M 15 1.875 "/>
</g>
</svg>
