<?xml version="1.0" encoding="UTF-8"?>
<svg xmlns="http://www.w3.org/2000/svg" xmlns:xlink="http://www.w3.org/1999/xlink" width="100px" height="100px" viewBox="0 0 100 100" version="1.1">
<g id="surface1">
<path style=" stroke:none;fill-rule:evenodd;fill:rgb(0%,0%,0%);fill-opacity:1;" d="M 19.375 70 C 19.964844 69.214844 20.890625 68.75 21.875 68.75 L 37.5 68.75 C 39.226562 68.75 40.625 70.148438 40.625 71.875 C 40.625 73.601562 39.226562 75 37.5 75 L 23.4375 75 L 9.375 93.75 L 90.625 93.75 L 76.5625 75 L 62.5 75 C 60.773438 75 59.375 73.601562 59.375 71.875 C 59.375 70.148438 60.773438 68.75 62.5 68.75 L 78.125 68.75 C 79.109375 68.75 80.035156 69.214844 80.625 70 L 99.375 95 C 100.085938 95.945312 100.199219 97.214844 99.671875 98.273438 C 99.140625 99.332031 98.058594 100 96.875 100 L 3.125 100 C 1.941406 100 0.859375 99.332031 0.328125 98.273438 C -0.199219 97.214844 -0.0859375 95.945312 0.625 95 Z M 19.375 70 "/>
<path style=" stroke:none;fill-rule:evenodd;fill:rgb(0%,0%,0%);fill-opacity:1;" d="M 50 6.25 C 39.644531 6.25 31.25 14.644531 31.25 25 C 31.25 35.355469 39.644531 43.75 50 43.75 C 60.355469 43.75 68.75 35.355469 68.75 25 C 68.75 14.644531 60.355469 6.25 50 6.25 Z M 25 25 C 25 11.597656 35.570312 0.582031 48.957031 0.0234375 C 62.347656 -0.535156 73.792969 9.5625 74.914062 22.917969 C 76.03125 36.269531 66.421875 48.132812 53.125 49.804688 L 53.125 84.375 C 53.125 86.101562 51.726562 87.5 50 87.5 C 48.273438 87.5 46.875 86.101562 46.875 84.375 L 46.875 49.8125 C 34.371094 48.238281 24.992188 37.597656 25 24.992188 Z M 25 25 "/>
</g>
</svg>
