<?xml version="1.0" encoding="UTF-8"?>
<svg xmlns="http://www.w3.org/2000/svg" xmlns:xlink="http://www.w3.org/1999/xlink" width="30px" height="30px" viewBox="0 0 30 30" version="1.1">
<g id="surface1">
<path style=" stroke:none;fill-rule:evenodd;fill:rgb(0%,0%,0%);fill-opacity:1;" d="M 29.265625 25.71875 L 22.75 19.203125 C 22.714844 19.167969 22.671875 19.144531 22.636719 19.113281 C 23.917969 17.167969 24.667969 14.839844 24.667969 12.335938 C 24.667969 5.523438 19.144531 0 12.332031 0 C 5.523438 0 0 5.523438 0 12.332031 C 0 19.144531 5.523438 24.667969 12.332031 24.667969 C 14.839844 24.667969 17.167969 23.917969 19.113281 22.636719 C 19.144531 22.671875 19.167969 22.714844 19.203125 22.75 L 25.71875 29.265625 C 26.699219 30.246094 28.285156 30.246094 29.265625 29.265625 C 30.246094 28.285156 30.246094 26.699219 29.265625 25.71875 Z M 12.332031 20.390625 C 7.882812 20.390625 4.277344 16.785156 4.277344 12.332031 C 4.277344 7.882812 7.882812 4.277344 12.332031 4.277344 C 16.785156 4.277344 20.390625 7.882812 20.390625 12.332031 C 20.390625 16.785156 16.785156 20.390625 12.332031 20.390625 Z M 12.332031 20.390625 "/>
</g>
</svg>
